<?xml version="1.0" encoding="UTF-8"?>
<svg version="1.1" xmlns="http://www.w3.org/2000/svg" width="1080" height="1080">
<path d="M0 0 C1.72392682 -0.00782324 1.72392682 -0.00782324 3.48268044 -0.01580453 C4.74589588 -0.01134309 6.00911131 -0.00688164 7.310606 -0.002285 C8.66556906 -0.00458893 10.02053088 -0.007765 11.37549007 -0.01173949 C15.10234155 -0.02010526 18.82909088 -0.01595419 22.55594277 -0.00976706 C26.57367862 -0.00525093 30.59139662 -0.01222209 34.60912895 -0.0177269 C42.48069175 -0.02663105 50.35221646 -0.02469449 58.22378077 -0.01890162 C64.61859967 -0.01438979 71.01340788 -0.01377014 77.40822792 -0.01594925 C78.77202654 -0.01640895 78.77202654 -0.01640895 80.16337665 -0.01687793 C82.01021506 -0.01751736 83.85705346 -0.01816579 85.70389186 -0.01882312 C103.03045496 -0.02452924 120.35699691 -0.01796376 137.68355654 -0.00722238 C152.5633905 0.00171639 167.44319326 0.00015894 182.32302666 -0.00905991 C199.58955394 -0.01975238 216.85606268 -0.02398307 234.12259281 -0.01783538 C235.96212824 -0.01719826 237.80166367 -0.01656952 239.64119911 -0.01594925 C240.9989493 -0.01548642 240.9989493 -0.01548642 242.38412879 -0.01501425 C248.7752357 -0.01328445 255.16633089 -0.01620845 261.55743599 -0.02090836 C269.34018543 -0.02650571 277.12289451 -0.02502486 284.90563931 -0.01434687 C288.87951038 -0.00907511 292.85331404 -0.00705889 296.82718468 -0.01364517 C300.46017409 -0.01957564 304.09303319 -0.016378 307.72601067 -0.00569007 C309.6728745 -0.00237405 311.61974727 -0.0089528 313.56660187 -0.01580453 C314.71067092 -0.01058903 315.85473997 -0.00537354 317.03347778 0 C318.0269362 0.0003247 319.02039461 0.00064941 320.04395783 0.00098395 C322.39089775 0.25168228 322.39089775 0.25168228 324.39089775 2.25168228 C324.63140678 4.88391495 324.63140678 4.88391495 324.61794853 8.26193619 C324.61779747 9.5230925 324.61764641 10.78424881 324.61749077 12.08362198 C324.60727673 13.4651645 324.59684472 14.84670543 324.58621025 16.22824478 C324.58248063 17.63785985 324.57963342 19.04747751 324.57763481 20.4570961 C324.5699943 24.1692761 324.55034236 27.88129989 324.52822685 31.59341812 C324.50777734 35.38052634 324.49863502 39.16765978 324.488554 42.95480728 C324.46709675 50.38717021 324.43295591 57.81940437 324.39089775 65.25168228 C323.73089775 65.25168228 323.07089775 65.25168228 322.39089775 65.25168228 C322.06089775 66.24168228 321.73089775 67.23168228 321.39089775 68.25168228 C317.80337645 66.91917437 314.55443545 65.42096528 311.39089775 63.25168228 C311.39089775 62.59168228 311.39089775 61.93168228 311.39089775 61.25168228 C310.73089775 61.25168228 310.07089775 61.25168228 309.39089775 61.25168228 C309.39089775 60.59168228 309.39089775 59.93168228 309.39089775 59.25168228 C308.77214775 59.10730728 308.15339775 58.96293228 307.51589775 58.81418228 C305.39089775 58.25168228 305.39089775 58.25168228 303.39089775 57.25168228 C303.39089775 56.59168228 303.39089775 55.93168228 303.39089775 55.25168228 C302.79277275 55.12793228 302.19464775 55.00418228 301.57839775 54.87668228 C299.39089775 54.25168228 299.39089775 54.25168228 296.39089775 52.25168228 C296.39089775 51.59168228 296.39089775 50.93168228 296.39089775 50.25168228 C295.40089775 50.25168228 294.41089775 50.25168228 293.39089775 50.25168228 C293.39089775 49.59168228 293.39089775 48.93168228 293.39089775 48.25168228 C292.40089775 48.25168228 291.41089775 48.25168228 290.39089775 48.25168228 C290.39089775 47.59168228 290.39089775 46.93168228 290.39089775 46.25168228 C289.07089775 46.25168228 287.75089775 46.25168228 286.39089775 46.25168228 C286.39089775 45.59168228 286.39089775 44.93168228 286.39089775 44.25168228 C285.79277275 44.10730728 285.19464775 43.96293228 284.57839775 43.81418228 C282.82939371 43.36443838 281.10412752 42.82275887 279.39089775 42.25168228 C279.39089775 41.59168228 279.39089775 40.93168228 279.39089775 40.25168228 C278.07089775 39.92168228 276.75089775 39.59168228 275.39089775 39.25168228 C275.39089775 38.59168228 275.39089775 37.93168228 275.39089775 37.25168228 C274.73089775 37.14855728 274.07089775 37.04543228 273.39089775 36.93918228 C269.55248766 36.05954664 266.05993084 34.68198332 262.39089775 33.25168228 C262.39089775 32.59168228 262.39089775 31.93168228 262.39089775 31.25168228 C260.74089775 31.25168228 259.09089775 31.25168228 257.39089775 31.25168228 C257.39089775 30.59168228 257.39089775 29.93168228 257.39089775 29.25168228 C255.41089775 29.25168228 253.43089775 29.25168228 251.39089775 29.25168228 C251.39089775 28.59168228 251.39089775 27.93168228 251.39089775 27.25168228 C249.99871025 27.31355728 249.99871025 27.31355728 248.57839775 27.37668228 C245.39089775 27.25168228 245.39089775 27.25168228 242.39089775 25.25168228 C240.19671762 24.67412101 237.98560028 24.15920798 235.76589775 23.68918228 C229.49187952 22.35266405 229.49187952 22.35266405 228.39089775 21.25168228 C227.06307897 21.04564144 225.7279388 20.88538639 224.39089775 20.75168228 C220.50200886 20.36279339 220.50200886 20.36279339 219.39089775 19.25168228 C217.22793502 19.04236331 215.05995065 18.88371159 212.89089775 18.75168228 C206.50200886 18.36279339 206.50200886 18.36279339 205.39089775 17.25168228 C203.57401346 17.10588061 201.75188675 17.02438128 199.92996025 16.97043228 C198.26320244 16.91435806 198.26320244 16.91435806 196.56277275 16.85715103 C194.80706963 16.804944 194.80706963 16.804944 193.01589775 16.75168228 C190.71629279 16.6828471 188.41680037 16.61010921 186.11746025 16.53293228 C185.09217216 16.50263931 184.06688408 16.47234634 183.01052666 16.44113541 C180.39089775 16.25168228 180.39089775 16.25168228 177.39089775 15.25168228 C175.59602749 15.14051346 173.79745656 15.08540334 171.99929619 15.06222916 C170.89253532 15.04551163 169.78577446 15.0287941 168.64547539 15.01156998 C167.44255852 14.99799454 166.23964165 14.9844191 165.00027275 14.97043228 C163.74949944 14.95202286 162.49872612 14.93361343 161.21005058 14.91464615 C157.86518879 14.86574178 154.5203246 14.82057057 151.17538261 14.77774429 C135.11212157 14.57197186 119.06479146 14.35997177 103.01695061 13.59767532 C95.78376422 13.25533719 88.57088962 13.06875745 81.32839775 13.06418228 C80.24236259 13.05193619 79.15632744 13.03969009 78.03738213 13.02707291 C70.48930326 12.93831998 70.48930326 12.93831998 63.39089775 15.25168228 C62.41389431 18.18269261 62.26523591 20.05580691 62.26391411 23.10754776 C62.26109428 24.1083638 62.25827446 25.10917984 62.25536919 26.14032364 C62.25739342 27.23748703 62.25941765 28.33465042 62.26150322 29.46506119 C62.2597509 30.6214711 62.25799858 31.77788101 62.25619316 32.96933365 C62.25177977 36.80565248 62.25471202 40.64192545 62.25808525 44.47824478 C62.25741179 47.14282666 62.2564429 49.80740715 62.25518608 52.47198868 C62.25336562 58.06571322 62.25576588 63.65942458 62.26052666 69.25314713 C62.26595309 75.70310424 62.26421794 82.15302965 62.25870025 88.60298598 C62.25414652 94.1496408 62.25353008 99.69628613 62.25613892 105.24294221 C62.25769134 108.55139988 62.25752695 111.85983957 62.25460243 115.16829681 C62.25205249 118.86619808 62.25595025 122.56403936 62.26150322 126.26193619 C62.25846687 127.8894632 62.25846687 127.8894632 62.25536919 129.54986954 C62.27013257 134.87829176 62.46964642 140.07583416 63.16129494 145.36174393 C63.51429113 148.26737485 63.55504684 151.16312956 63.60183525 154.08761978 C63.63019463 155.31738541 63.658554 156.54715103 63.68777275 157.81418228 C63.73969302 160.34789125 63.78401239 162.88176781 63.82058525 165.41574478 C63.99337871 172.2986844 64.63164832 178.41959967 66.70779228 184.99948502 C67.39089775 187.25168228 67.39089775 187.25168228 67.89089775 190.93918228 C68.41077147 194.38334565 69.41357397 197.17098382 70.769804 200.35715103 C71.39089775 202.25168228 71.39089775 202.25168228 71.39089775 206.25168228 C72.05089775 206.25168228 72.71089775 206.25168228 73.39089775 206.25168228 C73.39089775 207.90168228 73.39089775 209.55168228 73.39089775 211.25168228 C74.05089775 211.25168228 74.71089775 211.25168228 75.39089775 211.25168228 C78.39089775 217.87668228 78.39089775 217.87668228 78.39089775 221.25168228 C79.05089775 221.25168228 79.71089775 221.25168228 80.39089775 221.25168228 C81.85152625 223.89907144 82.39089775 225.14616562 82.39089775 228.25168228 C83.05089775 228.25168228 83.71089775 228.25168228 84.39089775 228.25168228 C84.39089775 228.91168228 84.39089775 229.57168228 84.39089775 230.25168228 C85.05089775 230.25168228 85.71089775 230.25168228 86.39089775 230.25168228 C86.39089775 231.24168228 86.39089775 232.23168228 86.39089775 233.25168228 C87.38089775 233.58168228 88.37089775 233.91168228 89.39089775 234.25168228 C89.39089775 234.91168228 89.39089775 235.57168228 89.39089775 236.25168228 C90.05089775 236.25168228 90.71089775 236.25168228 91.39089775 236.25168228 C91.39089775 236.91168228 91.39089775 237.57168228 91.39089775 238.25168228 C92.71089775 238.58168228 94.03089775 238.91168228 95.39089775 239.25168228 C95.39089775 239.91168228 95.39089775 240.57168228 95.39089775 241.25168228 C96.05089775 241.25168228 96.71089775 241.25168228 97.39089775 241.25168228 C97.39089775 241.91168228 97.39089775 242.57168228 97.39089775 243.25168228 C98.262304 243.51207291 99.13371025 243.77246353 100.03152275 244.04074478 C103.39646623 245.25368952 106.10533761 246.74791668 109.14089775 248.62668228 C114.38962955 251.76936045 119.63458789 254.20131527 125.39089775 256.25168228 C125.39089775 256.91168228 125.39089775 257.57168228 125.39089775 258.25168228 C126.62839775 258.15886978 126.62839775 258.15886978 127.89089775 258.06418228 C130.97003893 258.22913627 132.46315027 258.55793783 135.20339775 259.68918228 C138.80511717 261.15025714 141.98777429 261.61981712 145.8401165 261.93918228 C149.9685483 262.44496259 153.95647689 263.51571742 157.98464775 264.53293228 C167.25571999 266.48921358 176.68401144 266.55500364 186.12331963 266.85715103 C187.15908134 266.89453384 188.19484306 266.93191666 189.2619915 266.97043228 C190.1997039 267.00072525 191.13741631 267.03101822 192.10354424 267.06222916 C194.39089775 267.25168228 194.39089775 267.25168228 196.39089775 268.25168228 C198.54473699 268.3825247 200.70227276 268.45445935 202.85964775 268.49777603 C204.15257744 268.53064713 205.44550713 268.56351822 206.7776165 268.59738541 C208.83827793 268.64487856 210.89890798 268.68933447 212.95974541 268.72848892 C214.9473995 268.76812807 216.93479196 268.82026863 218.92214775 268.87277603 C220.11388603 268.89783218 221.30562431 268.92288834 222.53347588 268.94870377 C225.39089775 269.25168228 225.39089775 269.25168228 227.39089775 271.25168228 C227.65159416 273.90842056 227.65159416 273.90842056 227.66555595 277.32199478 C227.67508797 278.59671646 227.68461998 279.87143814 227.69444084 281.18478775 C227.69417945 282.58208621 227.69324257 283.97938468 227.691679 285.37668228 C227.69556424 286.80392965 227.69989855 288.23117586 227.70466423 289.65842056 C227.71213149 292.65113446 227.7118313 295.6437304 227.70657158 298.63644791 C227.70077239 302.4769365 227.71771578 306.31694353 227.74091625 310.15735245 C227.75562657 313.10498262 227.75652909 316.05249603 227.75340652 319.0001564 C227.75392098 320.41638519 227.75918195 321.83262031 227.76921844 323.24881363 C227.78151356 325.22629514 227.77287503 327.20387366 227.7632122 329.18136978 C227.76384163 330.30784927 227.76447105 331.43432877 227.76511955 332.594944 C227.64162636 333.47166763 227.51813316 334.34839127 227.39089775 335.25168228 C224.39089775 337.25168228 224.39089775 337.25168228 221.89089775 336.93918228 C220.04185513 336.43069556 218.21017388 335.85810766 216.39089775 335.25168228 C216.39089775 334.59168228 216.39089775 333.93168228 216.39089775 333.25168228 C215.73089775 333.25168228 215.07089775 333.25168228 214.39089775 333.25168228 C214.39089775 332.59168228 214.39089775 331.93168228 214.39089775 331.25168228 C213.77214775 331.10730728 213.15339775 330.96293228 212.51589775 330.81418228 C210.39089775 330.25168228 210.39089775 330.25168228 208.39089775 329.25168228 C208.39089775 328.59168228 208.39089775 327.93168228 208.39089775 327.25168228 C207.87527275 327.16918228 207.35964775 327.08668228 206.82839775 327.00168228 C203.34634043 325.93028003 200.5188889 324.11644624 197.39089775 322.25168228 C197.39089775 321.59168228 197.39089775 320.93168228 197.39089775 320.25168228 C196.73089775 320.25168228 196.07089775 320.25168228 195.39089775 320.25168228 C195.39089775 319.59168228 195.39089775 318.93168228 195.39089775 318.25168228 C194.07089775 318.25168228 192.75089775 318.25168228 191.39089775 318.25168228 C191.39089775 317.59168228 191.39089775 316.93168228 191.39089775 316.25168228 C190.40089775 316.25168228 189.41089775 316.25168228 188.39089775 316.25168228 C188.39089775 315.59168228 188.39089775 314.93168228 188.39089775 314.25168228 C187.07089775 314.25168228 185.75089775 314.25168228 184.39089775 314.25168228 C184.39089775 313.59168228 184.39089775 312.93168228 184.39089775 312.25168228 C183.07089775 312.25168228 181.75089775 312.25168228 180.39089775 312.25168228 C180.39089775 311.59168228 180.39089775 310.93168228 180.39089775 310.25168228 C178.74089775 309.92168228 177.09089775 309.59168228 175.39089775 309.25168228 C175.39089775 308.59168228 175.39089775 307.93168228 175.39089775 307.25168228 C174.07089775 307.25168228 172.75089775 307.25168228 171.39089775 307.25168228 C171.39089775 306.59168228 171.39089775 305.93168228 171.39089775 305.25168228 C170.07089775 305.25168228 168.75089775 305.25168228 167.39089775 305.25168228 C167.39089775 304.59168228 167.39089775 303.93168228 167.39089775 303.25168228 C166.64839775 303.10730728 165.90589775 302.96293228 165.14089775 302.81418228 C162.87062036 302.34980736 160.63330296 301.83304659 158.39089775 301.25168228 C158.39089775 300.59168228 158.39089775 299.93168228 158.39089775 299.25168228 C157.07089775 299.25168228 155.75089775 299.25168228 154.39089775 299.25168228 C154.39089775 298.59168228 154.39089775 297.93168228 154.39089775 297.25168228 C153.73089775 297.16918228 153.07089775 297.08668228 152.39089775 297.00168228 C148.40050612 296.00408437 145.00540132 294.18001545 141.39089775 292.25168228 C141.39089775 291.59168228 141.39089775 290.93168228 141.39089775 290.25168228 C139.74089775 290.25168228 138.09089775 290.25168228 136.39089775 290.25168228 C136.39089775 289.59168228 136.39089775 288.93168228 136.39089775 288.25168228 C135.07089775 288.25168228 133.75089775 288.25168228 132.39089775 288.25168228 C132.39089775 287.59168228 132.39089775 286.93168228 132.39089775 286.25168228 C131.87527275 286.16918228 131.35964775 286.08668228 130.82839775 286.00168228 C127.34634043 284.93028003 124.5188889 283.11644624 121.39089775 281.25168228 C121.39089775 280.59168228 121.39089775 279.93168228 121.39089775 279.25168228 C120.73089775 279.25168228 120.07089775 279.25168228 119.39089775 279.25168228 C119.39089775 278.59168228 119.39089775 277.93168228 119.39089775 277.25168228 C118.07089775 277.25168228 116.75089775 277.25168228 115.39089775 277.25168228 C115.39089775 276.59168228 115.39089775 275.93168228 115.39089775 275.25168228 C113.99871025 274.81855728 113.99871025 274.81855728 112.57839775 274.37668228 C109.39089775 273.25168228 109.39089775 273.25168228 106.39089775 271.25168228 C106.39089775 270.59168228 106.39089775 269.93168228 106.39089775 269.25168228 C105.07089775 268.92168228 103.75089775 268.59168228 102.39089775 268.25168228 C102.39089775 267.59168228 102.39089775 266.93168228 102.39089775 266.25168228 C101.73089775 266.25168228 101.07089775 266.25168228 100.39089775 266.25168228 C100.39089775 265.59168228 100.39089775 264.93168228 100.39089775 264.25168228 C99.40089775 264.25168228 98.41089775 264.25168228 97.39089775 264.25168228 C97.39089775 263.59168228 97.39089775 262.93168228 97.39089775 262.25168228 C96.30808525 261.88043228 96.30808525 261.88043228 95.20339775 261.50168228 C92.09522237 260.120271 89.86366627 258.58314974 87.39089775 256.25168228 C87.39089775 255.26168228 87.39089775 254.27168228 87.39089775 253.25168228 C86.40089775 253.25168228 85.41089775 253.25168228 84.39089775 253.25168228 C84.39089775 252.59168228 84.39089775 251.93168228 84.39089775 251.25168228 C83.73089775 251.25168228 83.07089775 251.25168228 82.39089775 251.25168228 C82.39089775 250.59168228 82.39089775 249.93168228 82.39089775 249.25168228 C81.73089775 249.25168228 81.07089775 249.25168228 80.39089775 249.25168228 C78.39089775 246.25168228 78.39089775 246.25168228 78.39089775 243.25168228 C77.73089775 243.25168228 77.07089775 243.25168228 76.39089775 243.25168228 C76.39089775 242.26168228 76.39089775 241.27168228 76.39089775 240.25168228 C75.73089775 240.25168228 75.07089775 240.25168228 74.39089775 240.25168228 C74.39089775 238.93168228 74.39089775 237.61168228 74.39089775 236.25168228 C73.80695244 236.04414322 73.22300713 235.83660416 72.6213665 235.62277603 C69.54359865 233.73083817 68.45538233 231.44951259 66.70339775 228.31418228 C66.10140556 227.25328384 65.49941338 226.19238541 64.879179 225.09933853 C63.39089775 222.25168228 63.39089775 222.25168228 62.39089775 219.25168228 C62.06089775 332.44168228 61.73089775 445.63168228 61.39089775 562.25168228 C104.95089775 562.74668228 104.95089775 562.74668228 149.39089775 563.25168228 C150.05089775 563.58168228 150.71089775 563.91168228 151.39089775 564.25168228 C153.74343615 564.34863538 156.09886725 564.38147278 158.45339775 564.37668228 C159.72312431 564.37926041 160.99285088 564.38183853 162.301054 564.38449478 C165.26190476 564.60603812 165.26190476 564.60603812 166.39089775 563.25168228 C168.94745848 563.11633495 171.48084798 563.04114928 174.03933525 563.00558853 C175.61746574 562.97264746 177.19559061 562.93943586 178.77371025 562.90597916 C181.27106622 562.8585579 183.76839977 562.81414294 186.26589775 562.77487564 C188.66979016 562.73517528 191.07320523 562.68362157 193.47683525 562.63058853 C194.22379662 562.62217438 194.97075798 562.61376022 195.74035454 562.60509109 C199.47774332 562.51588973 201.20392017 562.376334 204.39089775 560.25168228 C205.60508608 558.30507518 205.60508608 558.30507518 206.57839775 556.12668228 C206.92257744 555.40222916 207.26675713 554.67777603 207.6213665 553.93136978 C207.87531181 553.37707291 208.12925713 552.82277603 208.39089775 552.25168228 C209.05089775 552.25168228 209.71089775 552.25168228 210.39089775 552.25168228 C210.34964775 551.36480728 210.30839775 550.47793228 210.26589775 549.56418228 C210.38987021 546.27891215 211.00477679 544.19718933 212.39089775 541.25168228 C213.05089775 541.25168228 213.71089775 541.25168228 214.39089775 541.25168228 C214.32902275 540.52980728 214.26714775 539.80793228 214.20339775 539.06418228 C214.43012515 535.66327123 215.63674327 534.14837321 217.39089775 531.25168228 C218.10182055 529.45607947 218.76853629 527.64236906 219.39089775 525.81418228 C220.80353393 521.78194491 222.47983568 518.07380642 224.39089775 514.25168228 C225.08997189 511.51595643 225.08997189 511.51595643 225.39089775 509.25168228 C226.05089775 509.25168228 226.71089775 509.25168228 227.39089775 509.25168228 C227.39089775 507.60168228 227.39089775 505.95168228 227.39089775 504.25168228 C228.05089775 504.25168228 228.71089775 504.25168228 229.39089775 504.25168228 C229.47339775 503.44730728 229.55589775 502.64293228 229.64089775 501.81418228 C230.5928645 497.29234023 232.40669955 493.40465527 234.39089775 489.25168228 C235.05089775 489.25168228 235.71089775 489.25168228 236.39089775 489.25168228 C236.39089775 487.93168228 236.39089775 486.61168228 236.39089775 485.25168228 C237.05089775 485.25168228 237.71089775 485.25168228 238.39089775 485.25168228 C238.34964775 484.55043228 238.30839775 483.84918228 238.26589775 483.12668228 C238.40758107 479.867966 239.25824462 477.29568758 240.39089775 474.25168228 C241.05089775 474.25168228 241.71089775 474.25168228 242.39089775 474.25168228 C242.39089775 472.93168228 242.39089775 471.61168228 242.39089775 470.25168228 C243.05089775 470.25168228 243.71089775 470.25168228 244.39089775 470.25168228 C244.561054 469.15533463 244.561054 469.15533463 244.73464775 468.03683853 C245.40994448 465.17084707 246.38606731 463.20452386 247.89089775 460.68918228 C249.569344 457.87388144 250.74758765 455.47554314 251.39089775 452.25168228 C252.05089775 452.25168228 252.71089775 452.25168228 253.39089775 452.25168228 C253.39089775 450.93168228 253.39089775 449.61168228 253.39089775 448.25168228 C254.05089775 448.25168228 254.71089775 448.25168228 255.39089775 448.25168228 C255.39089775 446.93168228 255.39089775 445.61168228 255.39089775 444.25168228 C256.05089775 444.25168228 256.71089775 444.25168228 257.39089775 444.25168228 C257.47339775 443.59168228 257.55589775 442.93168228 257.64089775 442.25168228 C258.63849566 438.26129065 260.46256458 434.86618585 262.39089775 431.25168228 C263.05089775 431.25168228 263.71089775 431.25168228 264.39089775 431.25168228 C264.34964775 430.55043228 264.30839775 429.84918228 264.26589775 429.12668228 C264.40758107 425.867966 265.25824462 423.29568758 266.39089775 420.25168228 C267.05089775 420.25168228 267.71089775 420.25168228 268.39089775 420.25168228 C268.39089775 418.93168228 268.39089775 417.61168228 268.39089775 416.25168228 C269.05089775 416.25168228 269.71089775 416.25168228 270.39089775 416.25168228 C270.47339775 415.59168228 270.55589775 414.93168228 270.64089775 414.25168228 C271.63849566 410.26129065 273.46256458 406.86618585 275.39089775 403.25168228 C276.05089775 403.25168228 276.71089775 403.25168228 277.39089775 403.25168228 C277.29808525 401.96390884 277.29808525 401.96390884 277.20339775 400.65011978 C277.42213071 396.68558491 278.53122465 394.36356935 280.39089775 390.87668228 C280.94777275 389.81707291 281.50464775 388.75746353 282.07839775 387.66574478 C282.51152275 386.86910416 282.94464775 386.07246353 283.39089775 385.25168228 C284.05089775 385.25168228 284.71089775 385.25168228 285.39089775 385.25168228 C285.39089775 383.93168228 285.39089775 382.61168228 285.39089775 381.25168228 C286.05089775 381.25168228 286.71089775 381.25168228 287.39089775 381.25168228 C287.72089775 379.93168228 288.05089775 378.61168228 288.39089775 377.25168228 C289.05089775 377.25168228 289.71089775 377.25168228 290.39089775 377.25168228 C290.39089775 375.60168228 290.39089775 373.95168228 290.39089775 372.25168228 C291.05089775 372.25168228 291.71089775 372.25168228 292.39089775 372.25168228 C292.39089775 370.93168228 292.39089775 369.61168228 292.39089775 368.25168228 C293.05089775 368.25168228 293.71089775 368.25168228 294.39089775 368.25168228 C294.39089775 366.93168228 294.39089775 365.61168228 294.39089775 364.25168228 C295.05089775 364.25168228 295.71089775 364.25168228 296.39089775 364.25168228 C296.34191338 363.52078384 296.292929 362.78988541 296.24246025 362.03683853 C296.4099137 358.89488294 297.15704615 357.36285185 298.76589775 354.68918228 C300.41106134 351.91357003 301.98173447 349.15561222 303.39089775 346.25168228 C304.05089775 346.25168228 304.71089775 346.25168228 305.39089775 346.25168228 C305.39089775 344.93168228 305.39089775 343.61168228 305.39089775 342.25168228 C306.05089775 342.25168228 306.71089775 342.25168228 307.39089775 342.25168228 C307.39089775 340.93168228 307.39089775 339.61168228 307.39089775 338.25168228 C308.05089775 338.25168228 308.71089775 338.25168228 309.39089775 338.25168228 C309.39089775 336.93168228 309.39089775 335.61168228 309.39089775 334.25168228 C310.05089775 334.25168228 310.71089775 334.25168228 311.39089775 334.25168228 C311.47339775 333.59168228 311.55589775 332.93168228 311.64089775 332.25168228 C312.63849566 328.26129065 314.46256458 324.86618585 316.39089775 321.25168228 C317.05089775 321.25168228 317.71089775 321.25168228 318.39089775 321.25168228 C318.53527275 320.65355728 318.67964775 320.05543228 318.82839775 319.43918228 C319.27814165 317.69017824 319.81982116 315.96491205 320.39089775 314.25168228 C321.05089775 314.25168228 321.71089775 314.25168228 322.39089775 314.25168228 C322.39089775 312.93168228 322.39089775 311.61168228 322.39089775 310.25168228 C323.05089775 310.25168228 323.71089775 310.25168228 324.39089775 310.25168228 C324.39089775 308.93168228 324.39089775 307.61168228 324.39089775 306.25168228 C325.05089775 306.25168228 325.71089775 306.25168228 326.39089775 306.25168228 C326.47339775 305.55043228 326.55589775 304.84918228 326.64089775 304.12668228 C327.5709878 300.56133708 329.15776144 298.16152657 331.39089775 295.25168228 C332.05089775 295.25168228 332.71089775 295.25168228 333.39089775 295.25168228 C333.39089775 293.60168228 333.39089775 291.95168228 333.39089775 290.25168228 C334.05089775 290.25168228 334.71089775 290.25168228 335.39089775 290.25168228 C335.39089775 288.93168228 335.39089775 287.61168228 335.39089775 286.25168228 C336.05089775 286.25168228 336.71089775 286.25168228 337.39089775 286.25168228 C337.39089775 284.93168228 337.39089775 283.61168228 337.39089775 282.25168228 C338.05089775 282.25168228 338.71089775 282.25168228 339.39089775 282.25168228 C339.51464775 281.67418228 339.63839775 281.09668228 339.76589775 280.50168228 C340.39738599 278.22832461 341.27947966 276.32632939 342.39089775 274.25168228 C343.05089775 274.25168228 343.71089775 274.25168228 344.39089775 274.25168228 C344.39089775 273.26168228 344.39089775 272.27168228 344.39089775 271.25168228 C345.05089775 271.25168228 345.71089775 271.25168228 346.39089775 271.25168228 C346.39089775 269.93168228 346.39089775 268.61168228 346.39089775 267.25168228 C347.05089775 267.25168228 347.71089775 267.25168228 348.39089775 267.25168228 C348.49402275 266.55043228 348.59714775 265.84918228 348.70339775 265.12668228 C349.48448778 261.86030581 350.81148518 259.20449708 352.39089775 256.25168228 C353.05089775 256.25168228 353.71089775 256.25168228 354.39089775 256.25168228 C354.51464775 255.69480728 354.63839775 255.13793228 354.76589775 254.56418228 C355.4506663 252.03053864 356.38223538 249.67247196 357.39089775 247.25168228 C358.05089775 247.25168228 358.71089775 247.25168228 359.39089775 247.25168228 C359.39089775 245.93168228 359.39089775 244.61168228 359.39089775 243.25168228 C360.05089775 243.25168228 360.71089775 243.25168228 361.39089775 243.25168228 C361.39089775 241.93168228 361.39089775 240.61168228 361.39089775 239.25168228 C362.05089775 239.25168228 362.71089775 239.25168228 363.39089775 239.25168228 C363.53527275 238.65355728 363.67964775 238.05543228 363.82839775 237.43918228 C364.27814165 235.69017824 364.81982116 233.96491205 365.39089775 232.25168228 C366.05089775 232.25168228 366.71089775 232.25168228 367.39089775 232.25168228 C367.48371025 231.41636978 367.48371025 231.41636978 367.57839775 230.56418228 C368.80483792 227.07354489 370.46346641 225.49397011 373.39089775 223.25168228 C376.21921191 222.53174777 378.56118457 222.53994915 381.39089775 223.25168228 C385.36892705 226.25730442 387.5643023 229.63712535 389.39089775 234.25168228 C389.57839775 237.12668228 389.57839775 237.12668228 389.39089775 239.25168228 C390.05089775 239.25168228 390.71089775 239.25168228 391.39089775 239.25168228 C391.62872978 240.143069 391.62872978 240.143069 391.8713665 241.05246353 C393.51702454 246.89864098 395.64402973 252.24977425 398.30496025 257.70871353 C399.38255482 260.23214542 399.95439097 262.55019034 400.39089775 265.25168228 C401.05089775 265.25168228 401.71089775 265.25168228 402.39089775 265.25168228 C403.70716467 268.8714163 404.39089775 271.34735359 404.39089775 275.25168228 C405.05089775 275.25168228 405.71089775 275.25168228 406.39089775 275.25168228 C406.39089775 276.90168228 406.39089775 278.55168228 406.39089775 280.25168228 C407.05089775 280.25168228 407.71089775 280.25168228 408.39089775 280.25168228 C408.39089775 281.57168228 408.39089775 282.89168228 408.39089775 284.25168228 C409.05089775 284.25168228 409.71089775 284.25168228 410.39089775 284.25168228 C410.39089775 286.23168228 410.39089775 288.21168228 410.39089775 290.25168228 C411.05089775 290.25168228 411.71089775 290.25168228 412.39089775 290.25168228 C415.39089775 296.75168228 415.39089775 296.75168228 415.39089775 301.25168228 C416.05089775 301.25168228 416.71089775 301.25168228 417.39089775 301.25168228 C418.88910834 304.62265611 419.39089775 306.45610347 419.39089775 310.25168228 C420.05089775 310.25168228 420.71089775 310.25168228 421.39089775 310.25168228 C421.39089775 311.90168228 421.39089775 313.55168228 421.39089775 315.25168228 C422.05089775 315.25168228 422.71089775 315.25168228 423.39089775 315.25168228 C423.39089775 317.23168228 423.39089775 319.21168228 423.39089775 321.25168228 C424.05089775 321.25168228 424.71089775 321.25168228 425.39089775 321.25168228 C426.23356486 322.99720701 427.06469813 324.74830308 427.89089775 326.50168228 C428.35496025 327.47621353 428.81902275 328.45074478 429.29714775 329.45480728 C430.39089775 332.25168228 430.39089775 332.25168228 430.39089775 336.25168228 C431.05089775 336.25168228 431.71089775 336.25168228 432.39089775 336.25168228 C433.06846657 337.8094856 433.73249232 339.37318325 434.39089775 340.93918228 C434.76214775 341.80929947 435.13339775 342.67941666 435.51589775 343.57590103 C436.40960263 346.30888248 436.55539451 348.39869162 436.39089775 351.25168228 C437.05089775 351.25168228 437.71089775 351.25168228 438.39089775 351.25168228 C441.7208566 355.96912398 443.39089775 360.48031102 443.39089775 366.25168228 C444.05089775 366.25168228 444.71089775 366.25168228 445.39089775 366.25168228 C445.8730199 367.81327288 446.35145648 369.37600156 446.82839775 370.93918228 C447.22865166 372.24435806 447.22865166 372.24435806 447.6369915 373.57590103 C448.35434305 376.12194149 448.90843875 378.65202458 449.39089775 381.25168228 C450.05089775 381.25168228 450.71089775 381.25168228 451.39089775 381.25168228 C454.39089775 387.75168228 454.39089775 387.75168228 454.39089775 392.25168228 C455.05089775 392.25168228 455.71089775 392.25168228 456.39089775 392.25168228 C456.8730199 393.81327288 457.35145648 395.37600156 457.82839775 396.93918228 C458.22865166 398.24435806 458.22865166 398.24435806 458.6369915 399.57590103 C459.35434305 402.12194149 459.90843875 404.65202458 460.39089775 407.25168228 C461.05089775 407.25168228 461.71089775 407.25168228 462.39089775 407.25168228 C463.81348587 411.07488786 464.63132051 414.16449533 464.39089775 418.25168228 C465.05089775 418.25168228 465.71089775 418.25168228 466.39089775 418.25168228 C467.23674773 419.80744207 468.06708174 421.37164349 468.89089775 422.93918228 C469.35496025 423.80929947 469.81902275 424.67941666 470.29714775 425.57590103 C471.43908567 428.36957058 471.60593983 430.26797341 471.39089775 433.25168228 C472.05089775 433.25168228 472.71089775 433.25168228 473.39089775 433.25168228 C473.39089775 434.90168228 473.39089775 436.55168228 473.39089775 438.25168228 C474.05089775 438.25168228 474.71089775 438.25168228 475.39089775 438.25168228 C475.39089775 440.23168228 475.39089775 442.21168228 475.39089775 444.25168228 C476.05089775 444.25168228 476.71089775 444.25168228 477.39089775 444.25168228 C477.39089775 445.57168228 477.39089775 446.89168228 477.39089775 448.25168228 C478.05089775 448.25168228 478.71089775 448.25168228 479.39089775 448.25168228 C482.39089775 454.75168228 482.39089775 454.75168228 482.39089775 459.25168228 C483.05089775 459.25168228 483.71089775 459.25168228 484.39089775 459.25168228 C484.8730199 460.81327288 485.35145648 462.37600156 485.82839775 463.93918228 C486.22865166 465.24435806 486.22865166 465.24435806 486.6369915 466.57590103 C487.35434305 469.12194149 487.90843875 471.65202458 488.39089775 474.25168228 C489.05089775 474.25168228 489.71089775 474.25168228 490.39089775 474.25168228 C490.89705073 475.52007754 491.39558874 476.7915133 491.89089775 478.06418228 C492.308554 479.12572525 492.308554 479.12572525 492.73464775 480.20871353 C493.39089775 482.25168228 493.39089775 482.25168228 493.39089775 485.25168228 C494.05089775 485.25168228 494.71089775 485.25168228 495.39089775 485.25168228 C496.20779952 487.47932217 497.01951647 489.70863088 497.82839775 491.93918228 C498.05849541 492.56502213 498.28859306 493.19086197 498.52566338 493.83566666 C499.77143443 497.28410536 500.78894224 500.63303018 501.39089775 504.25168228 C502.05089775 504.25168228 502.71089775 504.25168228 503.39089775 504.25168228 C503.39089775 505.90168228 503.39089775 507.55168228 503.39089775 509.25168228 C504.05089775 509.25168228 504.71089775 509.25168228 505.39089775 509.25168228 C505.39089775 511.23168228 505.39089775 513.21168228 505.39089775 515.25168228 C506.38089775 515.58168228 507.37089775 515.91168228 508.39089775 516.25168228 C509.30496025 518.06418228 509.30496025 518.06418228 510.01589775 520.25168228 C510.80204908 522.99437499 510.80204908 522.99437499 512.39089775 525.25168228 C512.43153607 526.91785343 512.43361875 528.58556323 512.39089775 530.25168228 C513.05089775 530.25168228 513.71089775 530.25168228 514.39089775 530.25168228 C514.39089775 531.90168228 514.39089775 533.55168228 514.39089775 535.25168228 C515.05089775 535.25168228 515.71089775 535.25168228 516.39089775 535.25168228 C517.70716467 538.8714163 518.39089775 541.34735359 518.39089775 545.25168228 C519.38089775 545.58168228 520.37089775 545.91168228 521.39089775 546.25168228 C523.07087631 549.0915037 524.1889593 552.18290325 525.39089775 555.25168228 C525.80339775 556.30355728 526.21589775 557.35543228 526.64089775 558.43918228 C527.45338762 561.48601929 527.54039755 564.11218642 527.39089775 567.25168228 C528.05089775 567.25168228 528.71089775 567.25168228 529.39089775 567.25168228 C529.39089775 568.57168228 529.39089775 569.89168228 529.39089775 571.25168228 C530.05089775 571.25168228 530.71089775 571.25168228 531.39089775 571.25168228 C531.39089775 572.90168228 531.39089775 574.55168228 531.39089775 576.25168228 C532.05089775 576.25168228 532.71089775 576.25168228 533.39089775 576.25168228 C537.20475017 584.31654807 540.95958625 592.37755097 542.39089775 601.25168228 C543.05089775 601.25168228 543.71089775 601.25168228 544.39089775 601.25168228 C544.68093681 602.1740065 544.68093681 602.1740065 544.97683525 603.11496353 C545.23722588 603.92320572 545.4976165 604.73144791 545.76589775 605.56418228 C546.14874931 606.764944 546.14874931 606.764944 546.53933525 607.98996353 C547.37921586 610.47892757 547.37921586 610.47892757 549.39089775 613.25168228 C549.39089775 614.57168228 549.39089775 615.89168228 549.39089775 617.25168228 C550.05089775 617.25168228 550.71089775 617.25168228 551.39089775 617.25168228 C551.39089775 618.57168228 551.39089775 619.89168228 551.39089775 621.25168228 C552.05089775 621.25168228 552.71089775 621.25168228 553.39089775 621.25168228 C555.19319943 625.08157334 555.58712017 628.03290036 555.39089775 632.25168228 C556.05089775 632.25168228 556.71089775 632.25168228 557.39089775 632.25168228 C557.561054 632.90394791 557.73121025 633.55621353 557.90652275 634.22824478 C559.40879742 639.64602258 561.23035757 643.56536408 564.39089775 648.25168228 C564.64089775 651.12668228 564.64089775 651.12668228 564.39089775 653.25168228 C565.05089775 653.25168228 565.71089775 653.25168228 566.39089775 653.25168228 C566.39089775 654.90168228 566.39089775 656.55168228 566.39089775 658.25168228 C567.05089775 658.25168228 567.71089775 658.25168228 568.39089775 658.25168228 C569.70716467 661.8714163 570.39089775 664.34735359 570.39089775 668.25168228 C571.05089775 668.25168228 571.71089775 668.25168228 572.39089775 668.25168228 C572.39089775 669.90168228 572.39089775 671.55168228 572.39089775 673.25168228 C573.05089775 673.25168228 573.71089775 673.25168228 574.39089775 673.25168228 C575.23356486 674.99720701 576.06469813 676.74830308 576.89089775 678.50168228 C577.35496025 679.47621353 577.81902275 680.45074478 578.29714775 681.45480728 C579.39089775 684.25168228 579.39089775 684.25168228 579.39089775 688.25168228 C580.05089775 688.25168228 580.71089775 688.25168228 581.39089775 688.25168228 C582.06846657 689.8094856 582.73249232 691.37318325 583.39089775 692.93918228 C583.76214775 693.80929947 584.13339775 694.67941666 584.51589775 695.57590103 C585.40960263 698.30888248 585.55539451 700.39869162 585.39089775 703.25168228 C586.05089775 703.25168228 586.71089775 703.25168228 587.39089775 703.25168228 C589.54395732 707.10924735 590.78343029 709.80298013 590.39089775 714.25168228 C591.05089775 714.25168228 591.71089775 714.25168228 592.39089775 714.25168228 C592.39089775 715.57168228 592.39089775 716.89168228 592.39089775 718.25168228 C593.05089775 718.25168228 593.71089775 718.25168228 594.39089775 718.25168228 C594.39089775 719.90168228 594.39089775 721.55168228 594.39089775 723.25168228 C595.05089775 723.25168228 595.71089775 723.25168228 596.39089775 723.25168228 C596.39089775 725.23168228 596.39089775 727.21168228 596.39089775 729.25168228 C597.05089775 729.25168228 597.71089775 729.25168228 598.39089775 729.25168228 C598.39089775 731.23168228 598.39089775 733.21168228 598.39089775 735.25168228 C599.05089775 735.25168228 599.71089775 735.25168228 600.39089775 735.25168228 C603.45160152 741.15533224 606.11902606 747.00403514 608.39089775 753.25168228 C608.72089775 753.58168228 609.05089775 753.91168228 609.39089775 754.25168228 C609.43153607 755.91785343 609.43361875 757.58556323 609.39089775 759.25168228 C610.05089775 759.25168228 610.71089775 759.25168228 611.39089775 759.25168228 C611.39089775 760.90168228 611.39089775 762.55168228 611.39089775 764.25168228 C612.05089775 764.25168228 612.71089775 764.25168228 613.39089775 764.25168228 C613.39089775 765.57168228 613.39089775 766.89168228 613.39089775 768.25168228 C614.05089775 768.25168228 614.71089775 768.25168228 615.39089775 768.25168228 C616.35367034 770.6041172 617.31118273 772.95847847 618.26589775 775.31418228 C618.53531181 775.97095963 618.80472588 776.62773697 619.082304 777.30441666 C621.49434922 783.27569934 623.69011683 789.03369421 623.57839775 795.56418228 C623.56872978 796.826819 623.56872978 796.826819 623.5588665 798.11496353 C623.39089775 800.25168228 623.39089775 800.25168228 622.39089775 802.25168228 C599.62089775 802.25168228 576.85089775 802.25168228 553.39089775 802.25168228 C553.39089775 801.59168228 553.39089775 800.93168228 553.39089775 800.25168228 C552.73089775 800.25168228 552.07089775 800.25168228 551.39089775 800.25168228 C551.39089775 799.59168228 551.39089775 798.93168228 551.39089775 798.25168228 C550.73089775 798.25168228 550.07089775 798.25168228 549.39089775 798.25168228 C549.39089775 797.26168228 549.39089775 796.27168228 549.39089775 795.25168228 C548.73089775 795.25168228 548.07089775 795.25168228 547.39089775 795.25168228 C547.39089775 793.93168228 547.39089775 792.61168228 547.39089775 791.25168228 C546.73089775 791.25168228 546.07089775 791.25168228 545.39089775 791.25168228 C544.54823064 789.50615755 543.71709737 787.75506148 542.89089775 786.00168228 C542.42683525 785.02715103 541.96277275 784.05261978 541.48464775 783.04855728 C540.39089775 780.25168228 540.39089775 780.25168228 540.39089775 776.25168228 C539.73089775 776.25168228 539.07089775 776.25168228 538.39089775 776.25168228 C538.39089775 774.93168228 538.39089775 773.61168228 538.39089775 772.25168228 C537.73089775 772.25168228 537.07089775 772.25168228 536.39089775 772.25168228 C536.39089775 770.93168228 536.39089775 769.61168228 536.39089775 768.25168228 C535.73089775 768.25168228 535.07089775 768.25168228 534.39089775 768.25168228 C534.39089775 766.60168228 534.39089775 764.95168228 534.39089775 763.25168228 C533.73089775 763.25168228 533.07089775 763.25168228 532.39089775 763.25168228 C529.39089775 756.75168228 529.39089775 756.75168228 529.39089775 752.25168228 C528.73089775 752.25168228 528.07089775 752.25168228 527.39089775 752.25168228 C522.79864263 743.02616975 522.79864263 743.02616975 523.39089775 737.25168228 C522.73089775 737.25168228 522.07089775 737.25168228 521.39089775 737.25168228 C521.39089775 735.27168228 521.39089775 733.29168228 521.39089775 731.25168228 C520.73089775 731.25168228 520.07089775 731.25168228 519.39089775 731.25168228 C519.06089775 729.60168228 518.73089775 727.95168228 518.39089775 726.25168228 C517.73089775 726.25168228 517.07089775 726.25168228 516.39089775 726.25168228 C514.53717203 723.47109371 513.82081493 721.65770861 512.95339775 718.50168228 C511.72275352 714.22550437 510.18879361 710.31649032 508.39089775 706.25168228 C507.0032097 702.5268354 506.39089775 700.2730969 506.39089775 696.25168228 C505.73089775 696.25168228 505.07089775 696.25168228 504.39089775 696.25168228 C502.23783818 692.39411722 500.99836521 689.70038443 501.39089775 685.25168228 C500.73089775 685.25168228 500.07089775 685.25168228 499.39089775 685.25168228 C496.10518347 676.82311085 496.10518347 676.82311085 495.39089775 672.25168228 C494.73089775 672.25168228 494.07089775 672.25168228 493.39089775 672.25168228 C491.65043554 667.08074382 489.98112873 661.8886498 488.32839775 656.68918228 C488.05962822 655.85193619 487.79085869 655.01469009 487.51394463 654.15207291 C486.26175297 650.20813758 485.06877833 646.34407244 484.39089775 642.25168228 C483.73089775 642.25168228 483.07089775 642.25168228 482.39089775 642.25168228 C480.96830963 638.42847671 480.15047499 635.33886923 480.39089775 631.25168228 C479.73089775 631.25168228 479.07089775 631.25168228 478.39089775 631.25168228 C475.39089775 624.75168228 475.39089775 624.75168228 475.39089775 620.25168228 C474.73089775 620.25168228 474.07089775 620.25168228 473.39089775 620.25168228 C473.20913994 619.61101822 473.02738213 618.97035416 472.8401165 618.31027603 C471.65350872 614.22712823 470.47476375 610.24838225 468.70339775 606.37668228 C467.39089775 603.25168228 467.39089775 603.25168228 467.39089775 599.25168228 C466.73089775 599.25168228 466.07089775 599.25168228 465.39089775 599.25168228 C464.97517509 598.07799088 464.97517509 598.07799088 464.551054 596.88058853 C464.00771416 595.36271744 464.00771416 595.36271744 463.45339775 593.81418228 C463.09374931 592.80484634 462.73410088 591.79551041 462.363554 590.75558853 C461.62212136 588.34854483 461.62212136 588.34854483 460.39089775 587.25168228 C458.55973892 587.15317057 456.72469842 587.12195599 454.89089775 587.12668228 C453.390429 587.12281509 453.390429 587.12281509 451.85964775 587.11886978 C449.44690153 586.97297846 449.44690153 586.97297846 448.39089775 588.25168228 C444.76917033 588.57763775 441.14634565 588.76548764 437.51589775 588.97043228 C434.52591765 588.90303676 434.52591765 588.90303676 433.39089775 590.25168228 C431.70480809 590.3237374 430.01589116 590.33554296 428.32839775 590.31418228 C427.40929619 590.30515884 426.49019463 590.29613541 425.5432415 590.28683853 C424.83296806 590.27523697 424.12269463 590.26363541 423.39089775 590.25168228 C423.39089775 590.91168228 423.39089775 591.57168228 423.39089775 592.25168228 C422.75281181 592.38445572 422.11472588 592.51722916 421.457304 592.65402603 C420.63101494 592.83062759 419.80472588 593.00722916 418.95339775 593.18918228 C418.12968681 593.36320572 417.30597588 593.53722916 416.457304 593.71652603 C414.41428571 594.05921222 414.41428571 594.05921222 413.39089775 595.25168228 C411.05792342 595.29261166 408.7238455 595.29409951 406.39089775 595.25168228 C406.39089775 595.91168228 406.39089775 596.57168228 406.39089775 597.25168228 C405.25652275 597.39605728 404.12214775 597.54043228 402.95339775 597.68918228 C399.58312574 597.86339706 399.58312574 597.86339706 398.39089775 599.25168228 C396.7247266 599.2923206 395.0570168 599.29440328 393.39089775 599.25168228 C393.39089775 599.91168228 393.39089775 600.57168228 393.39089775 601.25168228 C391.74089775 601.25168228 390.09089775 601.25168228 388.39089775 601.25168228 C388.39089775 601.91168228 388.39089775 602.57168228 388.39089775 603.25168228 C387.72703056 603.50562759 387.06316338 603.75957291 386.379179 604.02121353 C380.79366747 606.19062792 380.79366747 606.19062792 375.51589775 609.00168228 C373.39089775 610.25168228 373.39089775 610.25168228 369.39089775 610.25168228 C369.39089775 610.91168228 369.39089775 611.57168228 369.39089775 612.25168228 C368.07089775 612.25168228 366.75089775 612.25168228 365.39089775 612.25168228 C365.39089775 612.91168228 365.39089775 613.57168228 365.39089775 614.25168228 C362.74350859 615.71231079 361.49641441 616.25168228 358.39089775 616.25168228 C358.39089775 616.91168228 358.39089775 617.57168228 358.39089775 618.25168228 C357.40089775 618.58168228 356.41089775 618.91168228 355.39089775 619.25168228 C355.06089775 619.91168228 354.73089775 620.57168228 354.39089775 621.25168228 C353.73089775 621.25168228 353.07089775 621.25168228 352.39089775 621.25168228 C352.39089775 621.91168228 352.39089775 622.57168228 352.39089775 623.25168228 C349.39089775 625.25168228 349.39089775 625.25168228 346.39089775 625.25168228 C346.39089775 625.91168228 346.39089775 626.57168228 346.39089775 627.25168228 C345.40089775 627.25168228 344.41089775 627.25168228 343.39089775 627.25168228 C343.39089775 627.91168228 343.39089775 628.57168228 343.39089775 629.25168228 C342.44214775 629.49918228 341.49339775 629.74668228 340.51589775 630.00168228 C337.33237743 630.91407321 337.33237743 630.91407321 336.20339775 633.18918228 C335.93527275 633.86980728 335.66714775 634.55043228 335.39089775 635.25168228 C333.89089775 637.00168228 333.89089775 637.00168228 332.39089775 638.25168228 C331.73089775 638.25168228 331.07089775 638.25168228 330.39089775 638.25168228 C330.39089775 638.91168228 330.39089775 639.57168228 330.39089775 640.25168228 C329.73089775 640.25168228 329.07089775 640.25168228 328.39089775 640.25168228 C328.39089775 640.91168228 328.39089775 641.57168228 328.39089775 642.25168228 C327.73089775 642.25168228 327.07089775 642.25168228 326.39089775 642.25168228 C326.39089775 642.91168228 326.39089775 643.57168228 326.39089775 644.25168228 C325.73089775 644.25168228 325.07089775 644.25168228 324.39089775 644.25168228 C324.39089775 645.24168228 324.39089775 646.23168228 324.39089775 647.25168228 C323.73089775 647.25168228 323.07089775 647.25168228 322.39089775 647.25168228 C322.12277275 648.05605728 321.85464775 648.86043228 321.57839775 649.68918228 C321.18652275 650.53480728 320.79464775 651.38043228 320.39089775 652.25168228 C319.40089775 652.58168228 318.41089775 652.91168228 317.39089775 653.25168228 C317.39089775 653.91168228 317.39089775 654.57168228 317.39089775 655.25168228 C316.73089775 655.25168228 316.07089775 655.25168228 315.39089775 655.25168228 C315.39089775 655.91168228 315.39089775 656.57168228 315.39089775 657.25168228 C314.73089775 657.25168228 314.07089775 657.25168228 313.39089775 657.25168228 C313.24652275 657.84980728 313.10214775 658.44793228 312.95339775 659.06418228 C312.50365385 660.81318633 311.96197434 662.53845251 311.39089775 664.25168228 C310.73089775 664.25168228 310.07089775 664.25168228 309.39089775 664.25168228 C309.10214775 665.01480728 308.81339775 665.77793228 308.51589775 666.56418228 C307.39089775 669.25168228 307.39089775 669.25168228 305.39089775 672.25168228 C304.40089775 672.25168228 303.41089775 672.25168228 302.39089775 672.25168228 C302.28777275 672.95293228 302.18464775 673.65418228 302.07839775 674.37668228 C301.29730772 677.64305876 299.97031032 680.29886748 298.39089775 683.25168228 C297.73089775 683.25168228 297.07089775 683.25168228 296.39089775 683.25168228 C296.39089775 684.57168228 296.39089775 685.89168228 296.39089775 687.25168228 C295.73089775 687.25168228 295.07089775 687.25168228 294.39089775 687.25168228 C294.26714775 687.99418228 294.14339775 688.73668228 294.01589775 689.50168228 C293.43603074 692.05309713 292.65381036 693.97843958 291.39089775 696.25168228 C290.73089775 696.25168228 290.07089775 696.25168228 289.39089775 696.25168228 C289.39089775 697.57168228 289.39089775 698.89168228 289.39089775 700.25168228 C288.73089775 700.25168228 288.07089775 700.25168228 287.39089775 700.25168228 C287.39089775 701.90168228 287.39089775 703.55168228 287.39089775 705.25168228 C286.73089775 705.25168228 286.07089775 705.25168228 285.39089775 705.25168228 C285.39089775 706.57168228 285.39089775 707.89168228 285.39089775 709.25168228 C284.73089775 709.25168228 284.07089775 709.25168228 283.39089775 709.25168228 C283.39089775 710.57168228 283.39089775 711.89168228 283.39089775 713.25168228 C282.73089775 713.25168228 282.07089775 713.25168228 281.39089775 713.25168228 C281.26843681 713.96711197 281.14597588 714.68254166 281.019804 715.41965103 C280.379544 718.30280941 279.45538219 720.83760701 278.32839775 723.56418228 C277.78505791 724.888694 277.78505791 724.888694 277.2307415 726.23996353 C276.95359306 726.90383072 276.67644463 727.56769791 276.39089775 728.25168228 C275.73089775 728.25168228 275.07089775 728.25168228 274.39089775 728.25168228 C274.39089775 729.90168228 274.39089775 731.55168228 274.39089775 733.25168228 C273.73089775 733.25168228 273.07089775 733.25168228 272.39089775 733.25168228 C272.24652275 734.15918228 272.10214775 735.06668228 271.95339775 736.00168228 C271.52680302 738.46645184 271.04015554 740.84015336 270.39089775 743.25168228 C269.73089775 743.25168228 269.07089775 743.25168228 268.39089775 743.25168228 C268.44246025 743.95679947 268.49402275 744.66191666 268.54714775 745.38840103 C268.3614205 748.79185289 267.3659763 751.00339429 265.89089775 754.06418228 C265.194804 755.52791275 265.194804 755.52791275 264.48464775 757.02121353 C264.12371025 757.75726822 263.76277275 758.49332291 263.39089775 759.25168228 C262.73089775 759.25168228 262.07089775 759.25168228 261.39089775 759.25168228 C261.39089775 760.57168228 261.39089775 761.89168228 261.39089775 763.25168228 C260.73089775 763.25168228 260.07089775 763.25168228 259.39089775 763.25168228 C259.39089775 764.57168228 259.39089775 765.89168228 259.39089775 767.25168228 C258.73089775 767.25168228 258.07089775 767.25168228 257.39089775 767.25168228 C257.28777275 767.95293228 257.18464775 768.65418228 257.07839775 769.37668228 C256.29730772 772.64305876 254.97031032 775.29886748 253.39089775 778.25168228 C252.73089775 778.25168228 252.07089775 778.25168228 251.39089775 778.25168228 C251.26714775 778.82918228 251.14339775 779.40668228 251.01589775 780.00168228 C250.38440951 782.27503995 249.50231584 784.17703518 248.39089775 786.25168228 C247.73089775 786.25168228 247.07089775 786.25168228 246.39089775 786.25168228 C246.39089775 787.24168228 246.39089775 788.23168228 246.39089775 789.25168228 C245.73089775 789.25168228 245.07089775 789.25168228 244.39089775 789.25168228 C244.39089775 789.91168228 244.39089775 790.57168228 244.39089775 791.25168228 C243.73089775 791.25168228 243.07089775 791.25168228 242.39089775 791.25168228 C242.39089775 791.91168228 242.39089775 792.57168228 242.39089775 793.25168228 C241.73089775 793.25168228 241.07089775 793.25168228 240.39089775 793.25168228 C240.06089775 794.24168228 239.73089775 795.23168228 239.39089775 796.25168228 C238.73089775 796.25168228 238.07089775 796.25168228 237.39089775 796.25168228 C237.39089775 796.91168228 237.39089775 797.57168228 237.39089775 798.25168228 C231.97913304 802.25168228 231.97913304 802.25168228 229.39089775 802.25168228 C229.39089775 802.91168228 229.39089775 803.57168228 229.39089775 804.25168228 C226.39089775 806.25168228 226.39089775 806.25168228 222.39089775 806.25168228 C222.39089775 806.91168228 222.39089775 807.57168228 222.39089775 808.25168228 C212.82089775 808.25168228 203.25089775 808.25168228 193.39089775 808.25168228 C193.39089775 807.59168228 193.39089775 806.93168228 193.39089775 806.25168228 C192.27714775 806.31355728 192.27714775 806.31355728 191.14089775 806.37668228 C188.30330823 806.24770094 186.80315838 805.68117006 184.39089775 804.25168228 C184.39089775 803.59168228 184.39089775 802.93168228 184.39089775 802.25168228 C183.73089775 802.25168228 183.07089775 802.25168228 182.39089775 802.25168228 C182.39089775 801.59168228 182.39089775 800.93168228 182.39089775 800.25168228 C181.55558525 800.12793228 181.55558525 800.12793228 180.70339775 800.00168228 C177.65411856 799.01272687 175.73899812 797.40410762 173.39089775 795.25168228 C173.39089775 794.59168228 173.39089775 793.93168228 173.39089775 793.25168228 C172.73089775 793.25168228 172.07089775 793.25168228 171.39089775 793.25168228 C171.39089775 791.93168228 171.39089775 790.61168228 171.39089775 789.25168228 C170.73089775 789.25168228 170.07089775 789.25168228 169.39089775 789.25168228 C169.39089775 788.59168228 169.39089775 787.93168228 169.39089775 787.25168228 C168.73089775 787.25168228 168.07089775 787.25168228 167.39089775 787.25168228 C167.06089775 785.60168228 166.73089775 783.95168228 166.39089775 782.25168228 C165.73089775 782.25168228 165.07089775 782.25168228 164.39089775 782.25168228 C164.39089775 780.93168228 164.39089775 779.61168228 164.39089775 778.25168228 C163.73089775 778.25168228 163.07089775 778.25168228 162.39089775 778.25168228 C160.58426403 774.27708809 159.971067 770.561511 159.39089775 766.25168228 C159.06089775 765.92168228 158.73089775 765.59168228 158.39089775 765.25168228 C158.29285651 763.85022968 158.26291596 762.44391283 158.26150322 761.0390358 C158.25835106 760.14463287 158.2551989 759.25022995 158.25195122 758.32872391 C158.25498756 756.8693969 158.25498756 756.8693969 158.25808525 755.38058853 C158.25712852 754.3879248 158.2561718 753.39526108 158.25518608 752.37251663 C158.25450409 750.26835441 158.25635969 748.1641901 158.26052666 746.06003189 C158.26586901 742.83154969 158.2605852 739.60320697 158.254179 736.37472916 C158.25483989 734.33501531 158.25612127 732.29530154 158.25808525 730.25558853 C158.25606102 729.28472809 158.25403679 728.31386765 158.25195122 727.31358719 C158.25667946 725.96725456 158.25667946 725.96725456 158.26150322 724.5937233 C158.26229881 723.80176056 158.26309441 723.00979782 158.26391411 722.19383621 C158.39089775 720.25168228 158.39089775 720.25168228 159.39089775 718.25168228 C159.65530587 714.81070446 159.83549688 711.37619728 159.9963665 707.92941666 C160.2901592 702.35242084 160.2901592 702.35242084 161.39089775 701.25168228 C161.57782708 699.75624763 161.71476145 698.25446442 161.82839775 696.75168228 C162.50589713 689.33094687 164.29114458 682.39084308 166.39089775 675.25168228 C166.73225702 673.92038114 167.07015731 672.5881008 167.39089775 671.25168228 C168.05089775 671.25168228 168.71089775 671.25168228 169.39089775 671.25168228 C169.39089775 668.28168228 169.39089775 665.31168228 169.39089775 662.25168228 C170.05089775 662.25168228 170.71089775 662.25168228 171.39089775 662.25168228 C171.32902275 661.24105728 171.26714775 660.23043228 171.20339775 659.18918228 C171.37784553 655.52577887 172.09159515 653.52209757 173.56448174 650.25632095 C175.07406298 646.59452727 176.00620938 642.76290953 177.01589775 638.93918228 C177.4437815 637.33843863 177.87338664 635.73815382 178.30496025 634.13840103 C178.49010185 633.43932632 178.67524345 632.74025162 178.86599541 632.01999283 C179.39089775 630.25168228 179.39089775 630.25168228 180.39089775 628.25168228 C181.05089775 628.25168228 181.71089775 628.25168228 182.39089775 628.25168228 C182.32902275 627.42668228 182.26714775 626.60168228 182.20339775 625.75168228 C182.4009716 622.06363717 183.28233263 619.59108731 184.65652275 616.22043228 C185.62976115 613.61132507 186.04647648 611.00705246 186.39089775 608.25168228 C187.05089775 608.25168228 187.71089775 608.25168228 188.39089775 608.25168228 C188.31742119 606.93490494 188.31742119 606.93490494 188.24246025 605.59152603 C188.40194987 602.0030097 189.16672165 599.9986688 190.76589775 596.81418228 C192.77654608 592.64479255 194.29343832 588.74128904 195.39089775 584.25168228 C196.05089775 584.25168228 196.71089775 584.25168228 197.39089775 584.25168228 C197.39089775 582.93168228 197.39089775 581.61168228 197.39089775 580.25168228 C190.10489557 580.36035014 182.81896974 580.47319006 175.53310966 580.59102154 C172.1481672 580.64564098 168.76321579 580.69894644 165.37820244 580.74899673 C161.46570307 580.8075541 157.55330672 580.87099033 153.64089775 580.93527603 C152.45479912 580.95198853 151.26870049 580.96870102 150.04665947 580.98591995 C144.02879623 581.08939247 138.05416398 581.3264918 132.05080986 581.76095963 C120.90850372 582.5322751 109.74569112 582.41606543 98.582304 582.41965103 C96.20209039 582.42287297 93.82187696 582.42623771 91.44166374 582.42973709 C86.47706455 582.43568968 81.51248267 582.43758089 76.54788017 582.43698502 C70.22975459 582.43688335 63.91174124 582.45055818 57.59364223 582.46775723 C52.68530086 582.47894648 47.77698609 582.48090214 42.86863327 582.48037529 C40.54095827 582.48154411 38.21328233 582.48590308 35.88562012 582.49370766 C-0.6756154 582.60487918 -0.6756154 582.60487918 -7.60910225 577.25168228 C-9.31293333 574.44556493 -9.85892942 572.35728351 -9.85749924 569.09361959 C-9.86199383 568.26614919 -9.86648842 567.4386788 -9.8711192 566.58613354 C-9.86586517 565.68056035 -9.86061115 564.77498716 -9.85519791 563.84197235 C-9.8575056 562.8732956 -9.85981328 561.90461885 -9.8621909 560.90658826 C-9.8675174 557.63542296 -9.85848479 554.36445147 -9.84961128 551.09329605 C-9.85048281 548.73458235 -9.8522328 546.37586884 -9.85478961 544.01715636 C-9.85833872 538.87592145 -9.85564371 533.73472823 -9.8475132 528.59350014 C-9.83545691 520.94865372 -9.83484031 513.30383654 -9.83659718 505.65898235 C-9.83922684 492.79994276 -9.83253509 479.94092371 -9.82056236 467.08189011 C-9.80873527 454.34667484 -9.80103188 441.61146812 -9.79885674 428.87624741 C-9.79871926 428.08491835 -9.79858178 427.2935893 -9.79844013 426.47828058 C-9.79776348 422.45965078 -9.79716071 418.44102097 -9.79658638 414.42239115 C-9.79238364 385.94572325 -9.77890357 357.46906653 -9.75998116 328.99240494 C-9.74161752 301.32476231 -9.72744773 273.65712275 -9.71896553 245.98947525 C-9.71870248 245.13689543 -9.71843943 244.28431561 -9.7181684 243.40590004 C-9.7155314 234.84407718 -9.71297977 226.2822543 -9.71049068 217.7204314 C-9.70541802 200.27843528 -9.69977552 182.83643935 -9.69378853 165.39444351 C-9.69351395 164.5924585 -9.69323937 163.79047348 -9.69295647 162.96418589 C-9.6745498 109.39334666 -9.64281724 55.82251379 -9.60910225 2.25168228 C-6.30404333 0.27944479 -3.82345693 0.00124926 0 0 Z M339.39089775 307.25168228 C339.39089775 307.91168228 339.39089775 308.57168228 339.39089775 309.25168228 C338.73089775 309.25168228 338.07089775 309.25168228 337.39089775 309.25168228 C337.39089775 310.24168228 337.39089775 311.23168228 337.39089775 312.25168228 C336.73089775 312.25168228 336.07089775 312.25168228 335.39089775 312.25168228 C335.01578056 313.01351822 334.64066338 313.77535416 334.254179 314.56027603 C331.40735644 320.30411702 328.50054624 325.96907827 325.27371025 331.50949478 C324.24022867 333.22350475 324.24022867 333.22350475 324.39089775 335.25168228 C323.73089775 335.25168228 323.07089775 335.25168228 322.39089775 335.25168228 C321.93714775 336.46855728 321.48339775 337.68543228 321.01589775 338.93918228 C319.84636834 342.05977499 318.64527337 345.16398845 317.39089775 348.25168228 C316.73089775 348.25168228 316.07089775 348.25168228 315.39089775 348.25168228 C315.39089775 349.90168228 315.39089775 351.55168228 315.39089775 353.25168228 C314.73089775 353.25168228 314.07089775 353.25168228 313.39089775 353.25168228 C310.67955016 357.83292476 308.43059909 362.33785632 306.39089775 367.25168228 C304.66208419 371.11608906 304.66208419 371.11608906 302.39089775 372.25168228 C302.39089775 373.57168228 302.39089775 374.89168228 302.39089775 376.25168228 C301.73089775 376.25168228 301.07089775 376.25168228 300.39089775 376.25168228 C300.39089775 377.90168228 300.39089775 379.55168228 300.39089775 381.25168228 C299.73089775 381.25168228 299.07089775 381.25168228 298.39089775 381.25168228 C298.39089775 382.57168228 298.39089775 383.89168228 298.39089775 385.25168228 C297.73089775 385.25168228 297.07089775 385.25168228 296.39089775 385.25168228 C296.39089775 386.57168228 296.39089775 387.89168228 296.39089775 389.25168228 C295.73089775 389.25168228 295.07089775 389.25168228 294.39089775 389.25168228 C293.40089775 392.22168228 292.41089775 395.19168228 291.39089775 398.25168228 C290.73089775 398.25168228 290.07089775 398.25168228 289.39089775 398.25168228 C289.39089775 399.57168228 289.39089775 400.89168228 289.39089775 402.25168228 C288.73089775 402.25168228 288.07089775 402.25168228 287.39089775 402.25168228 C287.39089775 403.90168228 287.39089775 405.55168228 287.39089775 407.25168228 C286.73089775 407.25168228 286.07089775 407.25168228 285.39089775 407.25168228 C285.39089775 408.57168228 285.39089775 409.89168228 285.39089775 411.25168228 C284.73089775 411.25168228 284.07089775 411.25168228 283.39089775 411.25168228 C283.39089775 412.57168228 283.39089775 413.89168228 283.39089775 415.25168228 C282.73089775 415.25168228 282.07089775 415.25168228 281.39089775 415.25168228 C280.97839775 416.42730728 280.56589775 417.60293228 280.14089775 418.81418228 C279.09253623 421.62794504 277.93598703 424.17851437 276.39089775 426.75168228 C273.65734456 431.31807765 272.07040446 436.21316215 270.39089775 441.25168228 C269.73089775 441.25168228 269.07089775 441.25168228 268.39089775 441.25168228 C268.19753838 441.83176041 268.004179 442.41183853 267.80496025 443.00949478 C266.33360608 447.42355728 264.86225192 451.83761978 263.39089775 456.25168228 C262.73089775 456.25168228 262.07089775 456.25168228 261.39089775 456.25168228 C261.39089775 457.57168228 261.39089775 458.89168228 261.39089775 460.25168228 C260.73089775 460.25168228 260.07089775 460.25168228 259.39089775 460.25168228 C257.89268716 463.62265611 257.39089775 465.45610347 257.39089775 469.25168228 C256.73089775 469.25168228 256.07089775 469.25168228 255.39089775 469.25168228 C255.39089775 470.90168228 255.39089775 472.55168228 255.39089775 474.25168228 C254.73089775 474.25168228 254.07089775 474.25168228 253.39089775 474.25168228 C252.40089775 477.55168228 251.41089775 480.85168228 250.39089775 484.25168228 C249.73089775 484.25168228 249.07089775 484.25168228 248.39089775 484.25168228 C248.39089775 485.90168228 248.39089775 487.55168228 248.39089775 489.25168228 C247.73089775 489.25168228 247.07089775 489.25168228 246.39089775 489.25168228 C245.07463083 492.8714163 244.39089775 495.34735359 244.39089775 499.25168228 C243.73089775 499.25168228 243.07089775 499.25168228 242.39089775 499.25168228 C242.39089775 500.90168228 242.39089775 502.55168228 242.39089775 504.25168228 C241.73089775 504.25168228 241.07089775 504.25168228 240.39089775 504.25168228 C239.88722018 505.70874955 239.38807219 507.16738324 238.89089775 508.62668228 C238.61246025 509.43879166 238.33402275 510.25090103 238.04714775 511.08761978 C237.2941647 513.1937747 237.2941647 513.1937747 237.39089775 515.25168228 C236.73089775 515.25168228 236.07089775 515.25168228 235.39089775 515.25168228 C234.07463083 518.8714163 233.39089775 521.34735359 233.39089775 525.25168228 C232.73089775 525.25168228 232.07089775 525.25168228 231.39089775 525.25168228 C229.96830963 529.07488786 229.15047499 532.16449533 229.39089775 536.25168228 C228.73089775 536.25168228 228.07089775 536.25168228 227.39089775 536.25168228 C226.74012479 538.29177984 226.09549951 540.33383897 225.45339775 542.37668228 C225.09374931 543.51363541 224.73410088 544.65058853 224.363554 545.82199478 C223.47191436 548.96600927 222.85738761 552.02062622 222.39089775 555.25168228 C221.73089775 555.25168228 221.07089775 555.25168228 220.39089775 555.25168228 C220.39089775 556.90168228 220.39089775 558.55168228 220.39089775 560.25168228 C219.73089775 560.25168228 219.07089775 560.25168228 218.39089775 560.25168228 C218.39089775 561.90168228 218.39089775 563.55168228 218.39089775 565.25168228 C223.01089775 565.25168228 227.63089775 565.25168228 232.39089775 565.25168228 C232.39089775 564.59168228 232.39089775 563.93168228 232.39089775 563.25168228 C235.03089775 562.92168228 237.67089775 562.59168228 240.39089775 562.25168228 C240.39089775 561.59168228 240.39089775 560.93168228 240.39089775 560.25168228 C241.13339775 560.10730728 241.87589775 559.96293228 242.64089775 559.81418228 C244.91117514 559.34980736 247.14849255 558.83304659 249.39089775 558.25168228 C249.39089775 557.59168228 249.39089775 556.93168228 249.39089775 556.25168228 C250.71089775 556.25168228 252.03089775 556.25168228 253.39089775 556.25168228 C253.39089775 555.59168228 253.39089775 554.93168228 253.39089775 554.25168228 C255.04089775 554.25168228 256.69089775 554.25168228 258.39089775 554.25168228 C258.39089775 553.59168228 258.39089775 552.93168228 258.39089775 552.25168228 C260.37089775 552.25168228 262.35089775 552.25168228 264.39089775 552.25168228 C264.39089775 551.59168228 264.39089775 550.93168228 264.39089775 550.25168228 C265.71089775 549.92168228 267.03089775 549.59168228 268.39089775 549.25168228 C268.39089775 548.59168228 268.39089775 547.93168228 268.39089775 547.25168228 C269.78308525 546.81855728 269.78308525 546.81855728 271.20339775 546.37668228 C274.48881442 545.36418228 274.48881442 545.36418228 277.39089775 543.25168228 C277.39089775 542.59168228 277.39089775 541.93168228 277.39089775 541.25168228 C278.05089775 541.25168228 278.71089775 541.25168228 279.39089775 541.25168228 C279.39089775 540.59168228 279.39089775 539.93168228 279.39089775 539.25168228 C279.94777275 538.98355728 280.50464775 538.71543228 281.07839775 538.43918228 C283.60315109 537.14268732 286.02804259 535.82691905 288.39089775 534.25168228 C288.39089775 533.59168228 288.39089775 532.93168228 288.39089775 532.25168228 C289.05089775 532.25168228 289.71089775 532.25168228 290.39089775 532.25168228 C290.39089775 531.59168228 290.39089775 530.93168228 290.39089775 530.25168228 C291.05089775 530.25168228 291.71089775 530.25168228 292.39089775 530.25168228 C292.39089775 529.59168228 292.39089775 528.93168228 292.39089775 528.25168228 C293.05089775 528.25168228 293.71089775 528.25168228 294.39089775 528.25168228 C294.39089775 527.59168228 294.39089775 526.93168228 294.39089775 526.25168228 C295.05089775 526.25168228 295.71089775 526.25168228 296.39089775 526.25168228 C297.22938579 524.79630661 298.06153709 523.33727855 298.89089775 521.87668228 C299.35496025 521.06457291 299.81902275 520.25246353 300.29714775 519.41574478 C301.54125634 517.35831354 301.54125634 517.35831354 301.39089775 515.25168228 C302.05089775 515.25168228 302.71089775 515.25168228 303.39089775 515.25168228 C303.39089775 514.59168228 303.39089775 513.93168228 303.39089775 513.25168228 C304.05089775 513.25168228 304.71089775 513.25168228 305.39089775 513.25168228 C305.39089775 511.93168228 305.39089775 510.61168228 305.39089775 509.25168228 C306.05089775 509.25168228 306.71089775 509.25168228 307.39089775 509.25168228 C307.39089775 508.26168228 307.39089775 507.27168228 307.39089775 506.25168228 C308.05089775 506.25168228 308.71089775 506.25168228 309.39089775 506.25168228 C309.39089775 504.93168228 309.39089775 503.61168228 309.39089775 502.25168228 C310.05089775 502.25168228 310.71089775 502.25168228 311.39089775 502.25168228 C312.22938579 500.79630661 313.06153709 499.33727855 313.89089775 497.87668228 C314.35496025 497.06457291 314.81902275 496.25246353 315.29714775 495.41574478 C316.54125634 493.35831354 316.54125634 493.35831354 316.39089775 491.25168228 C317.05089775 491.25168228 317.71089775 491.25168228 318.39089775 491.25168228 C318.39089775 489.93168228 318.39089775 488.61168228 318.39089775 487.25168228 C319.05089775 487.25168228 319.71089775 487.25168228 320.39089775 487.25168228 C320.39089775 485.93168228 320.39089775 484.61168228 320.39089775 483.25168228 C321.05089775 483.25168228 321.71089775 483.25168228 322.39089775 483.25168228 C322.72863213 482.40863541 323.0663665 481.56558853 323.41433525 480.69699478 C324.08335869 479.05344009 324.08335869 479.05344009 324.76589775 477.37668228 C325.42718681 475.74086197 325.42718681 475.74086197 326.10183525 474.07199478 C327.39089775 471.25168228 327.39089775 471.25168228 329.39089775 469.25168228 C330.71089775 469.25168228 332.03089775 469.25168228 333.39089775 469.25168228 C333.25039945 472.04371238 333.10374392 474.83518024 332.95339775 477.62668228 C332.91408134 478.42074478 332.87476494 479.21480728 332.83425713 480.03293228 C332.504179 486.02511978 332.504179 486.02511978 331.39089775 488.25168228 C330.46958551 494.90560403 330.28095062 501.54490735 330.39089775 508.25168228 C329.73089775 508.25168228 329.07089775 508.25168228 328.39089775 508.25168228 C328.39089775 513.86168228 328.39089775 519.47168228 328.39089775 525.25168228 C327.73089775 525.25168228 327.07089775 525.25168228 326.39089775 525.25168228 C326.33031181 526.38347916 326.26972588 527.51527603 326.207304 528.68136978 C326.12289859 530.16315373 326.03825058 531.64492388 325.95339775 533.12668228 C325.91408134 533.87304947 325.87476494 534.61941666 325.83425713 535.38840103 C325.504179 541.02511978 325.504179 541.02511978 324.39089775 543.25168228 C324.18594588 545.41506319 324.025255 547.58277234 323.89089775 549.75168228 C323.50200886 556.02946006 323.50200886 556.02946006 322.39089775 558.25168228 C322.07506329 561.6249698 321.87956013 564.99902593 321.67214775 568.38058853 C321.39089775 571.25168228 321.39089775 571.25168228 320.39089775 572.25168228 C320.35025943 573.91785343 320.34817675 575.58556323 320.39089775 577.25168228 C319.73089775 577.25168228 319.07089775 577.25168228 318.39089775 577.25168228 C318.39089775 577.91168228 318.39089775 578.57168228 318.39089775 579.25168228 C317.84736751 579.25222705 317.30383726 579.25277182 316.7438364 579.25333309 C303.52380889 579.26829475 290.30412314 579.31103332 277.08428288 579.38377285 C270.69124126 579.41810645 264.29844024 579.44316277 257.90530205 579.44723892 C251.73890456 579.45150814 245.57305038 579.4798569 239.4068222 579.52511406 C237.05086554 579.53813311 234.694844 579.54238127 232.33885574 579.53783607 C229.04594986 579.53296157 225.75465135 579.55888397 222.46194267 579.59225845 C221.48155022 579.58363281 220.50115776 579.57500717 219.49105644 579.56612015 C217.02176479 579.60824985 214.79403545 579.68392899 212.39089775 580.25168228 C209.80626229 583.1085328 209.39089775 584.41991266 209.39089775 588.25168228 C208.73089775 588.25168228 208.07089775 588.25168228 207.39089775 588.25168228 C205.89107786 591.76189905 204.89654443 595.15235812 204.07839775 598.87668228 C202.79372794 604.22617914 200.84687049 608.8835827 198.4651165 613.82590103 C197.23283457 616.60861768 196.63676263 619.21934882 196.39089775 622.25168228 C195.73089775 622.25168228 195.07089775 622.25168228 194.39089775 622.25168228 C194.39089775 624.56168228 194.39089775 626.87168228 194.39089775 629.25168228 C193.73089775 629.25168228 193.07089775 629.25168228 192.39089775 629.25168228 C192.39089775 631.23168228 192.39089775 633.21168228 192.39089775 635.25168228 C191.73089775 635.25168228 191.07089775 635.25168228 190.39089775 635.25168228 C188.93905297 639.78869722 188.15580579 643.43229704 188.39089775 648.25168228 C187.73089775 648.25168228 187.07089775 648.25168228 186.39089775 648.25168228 C186.30839775 649.22105728 186.22589775 650.19043228 186.14089775 651.18918228 C185.59157982 655.1878937 184.02602457 658.41264235 182.3088665 662.03293228 C181.03546261 665.11077659 180.7345994 667.95214643 180.39089775 671.25168228 C180.06089775 671.58168228 179.73089775 671.91168228 179.39089775 672.25168228 C179.22589775 673.40668228 179.06089775 674.56168228 178.89089775 675.75168228 C178.39089775 679.25168228 178.39089775 679.25168228 177.39089775 680.25168228 C177.1848569 681.57950107 177.02460186 682.91464123 176.89089775 684.25168228 C176.50200886 688.14057117 176.50200886 688.14057117 175.39089775 689.25168228 C175.31863273 691.1045573 175.30708555 692.96002106 175.32839775 694.81418228 C175.34193291 696.33205338 175.34193291 696.33205338 175.3557415 697.88058853 C175.36734306 698.66304947 175.37894463 699.44551041 175.39089775 700.25168228 C174.73089775 700.25168228 174.07089775 700.25168228 173.39089775 700.25168228 C173.33031181 701.31129166 173.26972588 702.37090103 173.207304 703.46261978 C173.12289648 704.85065449 173.03824859 706.2386746 172.95339775 707.62668228 C172.91408134 708.32535416 172.87476494 709.02402603 172.83425713 709.74386978 C172.504179 715.02511978 172.504179 715.02511978 171.39089775 717.25168228 C171.28679843 718.62321681 171.24228565 719.99955087 171.22976494 721.3749733 C171.22015739 722.2266861 171.21054985 723.0783989 171.20065117 723.95592117 C171.19640129 724.8798114 171.19215141 725.80370163 171.18777275 726.75558853 C171.17922264 728.18426506 171.17922264 728.18426506 171.1704998 729.64180374 C171.16103904 731.66352602 171.15451156 733.68526379 171.15066338 735.70700455 C171.14101299 738.77751699 171.11002286 741.84734424 171.07839775 744.91769791 C171.07186206 746.88449082 171.06661381 748.85128851 171.06277275 750.81808853 C171.05042595 751.72780914 171.03807915 752.63752975 171.0253582 753.57481766 C171.04631067 759.67518482 172.17350607 764.58947273 174.39089775 770.25168228 C174.87292405 771.6256824 175.35249897 773.00054782 175.82839775 774.37668228 C177.29518255 778.26210158 179.24536371 781.70045352 181.39089775 785.25168228 C182.38089775 785.25168228 183.37089775 785.25168228 184.39089775 785.25168228 C184.39089775 785.91168228 184.39089775 786.57168228 184.39089775 787.25168228 C192.35925143 793.14525708 199.0145349 794.93918228 208.89089775 794.93918228 C209.8462542 794.94562759 210.80161064 794.95207291 211.78591728 794.95871353 C217.31833012 794.81783511 220.31796529 794.30111706 224.39089775 790.25168228 C225.38089775 789.92168228 226.37089775 789.59168228 227.39089775 789.25168228 C227.39089775 788.59168228 227.39089775 787.93168228 227.39089775 787.25168228 C228.05089775 787.25168228 228.71089775 787.25168228 229.39089775 787.25168228 C229.39089775 786.59168228 229.39089775 785.93168228 229.39089775 785.25168228 C230.05089775 785.25168228 230.71089775 785.25168228 231.39089775 785.25168228 C231.39089775 784.59168228 231.39089775 783.93168228 231.39089775 783.25168228 C232.05089775 783.25168228 232.71089775 783.25168228 233.39089775 783.25168228 C233.39089775 782.59168228 233.39089775 781.93168228 233.39089775 781.25168228 C234.38089775 781.25168228 235.37089775 781.25168228 236.39089775 781.25168228 C236.39089775 780.26168228 236.39089775 779.27168228 236.39089775 778.25168228 C237.05089775 778.25168228 237.71089775 778.25168228 238.39089775 778.25168228 C239.05089775 776.27168228 239.71089775 774.29168228 240.39089775 772.25168228 C241.05089775 772.25168228 241.71089775 772.25168228 242.39089775 772.25168228 C242.39089775 770.93168228 242.39089775 769.61168228 242.39089775 768.25168228 C243.05089775 768.25168228 243.71089775 768.25168228 244.39089775 768.25168228 C245.38089775 765.28168228 246.37089775 762.31168228 247.39089775 759.25168228 C248.05089775 759.25168228 248.71089775 759.25168228 249.39089775 759.25168228 C249.39089775 757.93168228 249.39089775 756.61168228 249.39089775 755.25168228 C250.05089775 755.25168228 250.71089775 755.25168228 251.39089775 755.25168228 C252.81348587 751.42847671 253.63132051 748.33886923 253.39089775 744.25168228 C254.05089775 744.25168228 254.71089775 744.25168228 255.39089775 744.25168228 C255.8730199 742.69009169 256.35145648 741.127363 256.82839775 739.56418228 C257.09523369 738.69406509 257.36206963 737.82394791 257.6369915 736.92746353 C258.35434305 734.38142307 258.90843875 731.85133998 259.39089775 729.25168228 C260.05089775 729.25168228 260.71089775 729.25168228 261.39089775 729.25168228 C261.72089775 727.27168228 262.05089775 725.29168228 262.39089775 723.25168228 C263.05089775 723.25168228 263.71089775 723.25168228 264.39089775 723.25168228 C264.39089775 721.60168228 264.39089775 719.95168228 264.39089775 718.25168228 C265.05089775 718.25168228 265.71089775 718.25168228 266.39089775 718.25168228 C266.39089775 716.93168228 266.39089775 715.61168228 266.39089775 714.25168228 C267.05089775 714.25168228 267.71089775 714.25168228 268.39089775 714.25168228 C268.39089775 712.60168228 268.39089775 710.95168228 268.39089775 709.25168228 C269.05089775 709.25168228 269.71089775 709.25168228 270.39089775 709.25168228 C270.76214775 708.13793228 271.13339775 707.02418228 271.51589775 705.87668228 C273.18142439 701.36286371 275.58266004 697.4824546 278.1838665 693.45090103 C279.63146851 691.23147455 279.63146851 691.23147455 279.39089775 688.25168228 C280.05089775 688.25168228 280.71089775 688.25168228 281.39089775 688.25168228 C282.88910834 684.88070845 283.39089775 683.04726109 283.39089775 679.25168228 C284.05089775 679.25168228 284.71089775 679.25168228 285.39089775 679.25168228 C287.59228435 675.44740736 287.59228435 675.44740736 288.39089775 671.25168228 C289.05089775 671.25168228 289.71089775 671.25168228 290.39089775 671.25168228 C290.39089775 670.26168228 290.39089775 669.27168228 290.39089775 668.25168228 C291.05089775 668.25168228 291.71089775 668.25168228 292.39089775 668.25168228 C293.38089775 666.61199478 293.38089775 666.61199478 294.39089775 664.93918228 C294.76214775 664.32429947 295.13339775 663.70941666 295.51589775 663.07590103 C296.60713774 661.13806302 296.60713774 661.13806302 296.39089775 658.25168228 C297.05089775 658.25168228 297.71089775 658.25168228 298.39089775 658.25168228 C300.70681797 655.03054071 300.70681797 655.03054071 301.39089775 651.25168228 C302.05089775 651.25168228 302.71089775 651.25168228 303.39089775 651.25168228 C303.39089775 650.59168228 303.39089775 649.93168228 303.39089775 649.25168228 C304.05089775 649.25168228 304.71089775 649.25168228 305.39089775 649.25168228 C305.39089775 648.59168228 305.39089775 647.93168228 305.39089775 647.25168228 C306.05089775 647.25168228 306.71089775 647.25168228 307.39089775 647.25168228 C308.05089775 645.27168228 308.71089775 643.29168228 309.39089775 641.25168228 C310.05089775 641.25168228 310.71089775 641.25168228 311.39089775 641.25168228 C313.05756442 639.91834895 313.05756442 639.91834895 314.39089775 638.25168228 C314.39089775 637.59168228 314.39089775 636.93168228 314.39089775 636.25168228 C315.05089775 636.25168228 315.71089775 636.25168228 316.39089775 636.25168228 C316.39089775 635.59168228 316.39089775 634.93168228 316.39089775 634.25168228 C317.05089775 634.25168228 317.71089775 634.25168228 318.39089775 634.25168228 C318.39089775 633.59168228 318.39089775 632.93168228 318.39089775 632.25168228 C319.05089775 632.25168228 319.71089775 632.25168228 320.39089775 632.25168228 C322.07906708 630.60679935 323.7444309 628.93830686 325.39089775 627.25168228 C326.38089775 626.59168228 327.37089775 625.93168228 328.39089775 625.25168228 C328.39089775 624.59168228 328.39089775 623.93168228 328.39089775 623.25168228 C329.38089775 623.25168228 330.37089775 623.25168228 331.39089775 623.25168228 C331.39089775 622.59168228 331.39089775 621.93168228 331.39089775 621.25168228 C332.05089775 621.25168228 332.71089775 621.25168228 333.39089775 621.25168228 C333.39089775 620.59168228 333.39089775 619.93168228 333.39089775 619.25168228 C334.38089775 619.25168228 335.37089775 619.25168228 336.39089775 619.25168228 C337.76522686 617.96064585 339.09986132 616.62601139 340.39089775 615.25168228 C341.05089775 614.92168228 341.71089775 614.59168228 342.39089775 614.25168228 C342.39089775 613.59168228 342.39089775 612.93168228 342.39089775 612.25168228 C343.71089775 612.25168228 345.03089775 612.25168228 346.39089775 612.25168228 C346.39089775 611.59168228 346.39089775 610.93168228 346.39089775 610.25168228 C348.37089775 609.59168228 350.35089775 608.93168228 352.39089775 608.25168228 C352.39089775 607.59168228 352.39089775 606.93168228 352.39089775 606.25168228 C353.13339775 606.33418228 353.87589775 606.41668228 354.64089775 606.50168228 C358.26266904 606.17243035 358.92660666 604.86093167 361.39089775 602.25168228 C364.80163869 599.95383569 368.27974004 597.90946752 372.39089775 597.25168228 C372.39089775 596.59168228 372.39089775 595.93168228 372.39089775 595.25168228 C374.37089775 595.25168228 376.35089775 595.25168228 378.39089775 595.25168228 C378.39089775 594.59168228 378.39089775 593.93168228 378.39089775 593.25168228 C380.04089775 593.25168228 381.69089775 593.25168228 383.39089775 593.25168228 C383.39089775 592.59168228 383.39089775 591.93168228 383.39089775 591.25168228 C384.22621025 590.97904556 384.22621025 590.97904556 385.07839775 590.70090103 C388.93275951 589.43130552 392.74504925 588.12762786 396.51589775 586.62668228 C400.14048249 585.2365303 403.53541257 584.65329532 407.39089775 584.25168228 C407.39089775 583.59168228 407.39089775 582.93168228 407.39089775 582.25168228 C410.03089775 582.25168228 412.67089775 582.25168228 415.39089775 582.25168228 C415.39089775 581.59168228 415.39089775 580.93168228 415.39089775 580.25168228 C417.70089775 580.25168228 420.01089775 580.25168228 422.39089775 580.25168228 C422.39089775 579.59168228 422.39089775 578.93168228 422.39089775 578.25168228 C423.44277275 578.29293228 424.49464775 578.33418228 425.57839775 578.37668228 C429.28420325 578.25518046 431.04139026 577.60743531 434.39089775 576.25168228 C436.57838561 575.93857127 438.7648713 575.74022254 440.9651165 575.53683853 C444.84072482 575.08125172 448.60338987 574.17393597 452.39089775 573.25168228 C452.39089775 572.59168228 452.39089775 571.93168228 452.39089775 571.25168228 C453.05089775 571.25168228 453.71089775 571.25168228 454.39089775 571.25168228 C454.39089775 568.94168228 454.39089775 566.63168228 454.39089775 564.25168228 C453.73089775 564.25168228 453.07089775 564.25168228 452.39089775 564.25168228 C452.39089775 562.27168228 452.39089775 560.29168228 452.39089775 558.25168228 C451.73089775 558.25168228 451.07089775 558.25168228 450.39089775 558.25168228 C450.19753838 557.58781509 450.004179 556.92394791 449.80496025 556.23996353 C447.86338423 549.65378919 447.86338423 549.65378919 445.39089775 543.25168228 C444.73089775 543.25168228 444.07089775 543.25168228 443.39089775 543.25168228 C443.26585869 542.52980728 443.14081963 541.80793228 443.0119915 541.06418228 C442.39945954 538.29045265 441.53862046 535.87259749 440.45339775 533.25168228 C440.11437431 532.42668228 439.77535088 531.60168228 439.426054 530.75168228 C438.91365166 529.51418228 438.91365166 529.51418228 438.39089775 528.25168228 C437.72223699 526.58581464 437.05499637 524.91937387 436.39089775 523.25168228 C435.73089775 523.25168228 435.07089775 523.25168228 434.39089775 523.25168228 C434.39089775 521.93168228 434.39089775 520.61168228 434.39089775 519.25168228 C433.73089775 519.25168228 433.07089775 519.25168228 432.39089775 519.25168228 C432.39089775 517.93168228 432.39089775 516.61168228 432.39089775 515.25168228 C431.73089775 515.25168228 431.07089775 515.25168228 430.39089775 515.25168228 C430.39089775 513.60168228 430.39089775 511.95168228 430.39089775 510.25168228 C429.73089775 510.25168228 429.07089775 510.25168228 428.39089775 510.25168228 C427.72423108 506.91834895 427.05756442 503.58501561 426.39089775 500.25168228 C425.73089775 500.25168228 425.07089775 500.25168228 424.39089775 500.25168228 C424.06089775 498.60168228 423.73089775 496.95168228 423.39089775 495.25168228 C422.73089775 495.25168228 422.07089775 495.25168228 421.39089775 495.25168228 C420.63848666 491.59711413 419.99040071 487.93434331 419.39089775 484.25168228 C418.73089775 484.25168228 418.07089775 484.25168228 417.39089775 484.25168228 C417.28777275 483.59168228 417.18464775 482.93168228 417.07839775 482.25168228 C416.19876211 478.41327219 414.82119879 474.92071537 413.39089775 471.25168228 C412.73089775 471.25168228 412.07089775 471.25168228 411.39089775 471.25168228 C411.28777275 470.57105728 411.18464775 469.89043228 411.07839775 469.18918228 C410.44433923 466.09589158 410.44433923 466.09589158 408.89089775 462.75168228 C407.63825029 459.8288382 406.86351593 457.37096223 406.39089775 454.25168228 C405.73089775 454.25168228 405.07089775 454.25168228 404.39089775 454.25168228 C404.43214775 453.52980728 404.47339775 452.80793228 404.51589775 452.06418228 C404.3816847 449.04438859 403.63919156 446.98232499 402.39089775 444.25168228 C401.73089775 444.25168228 401.07089775 444.25168228 400.39089775 444.25168228 C400.39089775 442.60168228 400.39089775 440.95168228 400.39089775 439.25168228 C399.73089775 439.25168228 399.07089775 439.25168228 398.39089775 439.25168228 C398.45277275 438.40605728 398.51464775 437.56043228 398.57839775 436.68918228 C398.35074147 432.51548385 397.18881961 429.99735282 395.39089775 426.25168228 C394.73089775 426.25168228 394.07089775 426.25168228 393.39089775 426.25168228 C393.39089775 424.93168228 393.39089775 423.61168228 393.39089775 422.25168228 C392.73089775 422.25168228 392.07089775 422.25168228 391.39089775 422.25168228 C391.24652275 421.50918228 391.10214775 420.76668228 390.95339775 420.00168228 C390.48902283 417.73140489 389.97226206 415.49408749 389.39089775 413.25168228 C388.73089775 413.25168228 388.07089775 413.25168228 387.39089775 413.25168228 C387.39089775 411.27168228 387.39089775 409.29168228 387.39089775 407.25168228 C386.73089775 407.25168228 386.07089775 407.25168228 385.39089775 407.25168228 C385.45277275 406.55043228 385.51464775 405.84918228 385.57839775 405.12668228 C385.34833674 401.59908016 384.09889207 399.31183877 382.39089775 396.25168228 C381.73089775 396.25168228 381.07089775 396.25168228 380.39089775 396.25168228 C380.24652275 395.50918228 380.10214775 394.76668228 379.95339775 394.00168228 C379.48902283 391.73140489 378.97226206 389.49408749 378.39089775 387.25168228 C377.73089775 387.25168228 377.07089775 387.25168228 376.39089775 387.25168228 C376.39089775 385.27168228 376.39089775 383.29168228 376.39089775 381.25168228 C375.73089775 381.25168228 375.07089775 381.25168228 374.39089775 381.25168228 C374.39089775 379.60168228 374.39089775 377.95168228 374.39089775 376.25168228 C373.73089775 376.25168228 373.07089775 376.25168228 372.39089775 376.25168228 C372.39089775 374.93168228 372.39089775 373.61168228 372.39089775 372.25168228 C371.73089775 372.25168228 371.07089775 372.25168228 370.39089775 372.25168228 C370.26714775 371.55043228 370.14339775 370.84918228 370.01589775 370.12668228 C369.3525143 367.07511841 368.4187782 364.1982729 367.39089775 361.25168228 C366.73089775 361.25168228 366.07089775 361.25168228 365.39089775 361.25168228 C365.43214775 360.53625259 365.47339775 359.82082291 365.51589775 359.08371353 C365.37729462 355.94348642 364.61986266 353.8195688 363.39089775 350.93918228 C363.01964775 350.05617447 362.64839775 349.17316666 362.26589775 348.26340103 C361.97714775 347.59953384 361.68839775 346.93566666 361.39089775 346.25168228 C360.73089775 346.25168228 360.07089775 346.25168228 359.39089775 346.25168228 C359.39089775 344.93168228 359.39089775 343.61168228 359.39089775 342.25168228 C358.73089775 342.25168228 358.07089775 342.25168228 357.39089775 342.25168228 C357.26714775 341.55043228 357.14339775 340.84918228 357.01589775 340.12668228 C356.3525143 337.07511841 355.4187782 334.1982729 354.39089775 331.25168228 C353.73089775 331.25168228 353.07089775 331.25168228 352.39089775 331.25168228 C352.25812431 330.53625259 352.12535088 329.82082291 351.988554 329.08371353 C351.4031624 326.30979907 350.65931331 323.64868954 349.82839775 320.93918228 C349.55898369 320.05617447 349.28956963 319.17316666 349.0119915 318.26340103 C348.80703056 317.59953384 348.60206963 316.93566666 348.39089775 316.25168228 C347.73089775 316.25168228 347.07089775 316.25168228 346.39089775 316.25168228 C346.39089775 315.26168228 346.39089775 314.27168228 346.39089775 313.25168228 C345.73089775 313.25168228 345.07089775 313.25168228 344.39089775 313.25168228 C344.39089775 311.93168228 344.39089775 310.61168228 344.39089775 309.25168228 C343.73089775 309.25168228 343.07089775 309.25168228 342.39089775 309.25168228 C342.39089775 308.59168228 342.39089775 307.93168228 342.39089775 307.25168228 C341.40089775 307.25168228 340.41089775 307.25168228 339.39089775 307.25168228 Z " fill="#FDFDFD" transform="translate(270.6091022491455,157.74831771850586)"/>
</svg>
